# xmcd
#
# Track frame offsets:
#	150
#	21273
#	49190
#	64046
#	95480
#	116294
#	138658
#	165061
#
# Disc length: 2541 seconds
# Revision: 1
# Processed by: cddbd v1.5.2PL0 Copyright (c) Steve Scherf et al.
# Submitted via: dBpowerAMP V12.0
#
DISCID=6009eb08
DTITLE=B.B. King - B.B. King of the Blues: Live at teh Palais De Congress, Cannes
DYEAR=1983
DGENRE=Blues
TTITLE0=The Thrill is Gone [Live]
TTITLE1=Payin' the Cost to Be the Boss [Live]
TTITLE2=Caledonia [Live]
TTITLE3=All Over Again [Live]
TTITLE4=Everyday I Have the Blues [Live]
TTITLE5=Darling You Know I Love You [Live]
TTITLE6=Sweet Little Angel [Live]
TTITLE7=Guess Who [Live]
EXTD=
EXTT0=
EXTT1=
EXTT2=
EXTT3=
EXTT4=
EXTT5=
EXTT6=
EXTT7=
PLAYORDER=
